<?xml version="1.0" encoding="UTF-8" standalone="no"?>
<svg
   version="1.1"
   id="Layer_1"
   x="0px"
   y="0px"
   width="800"
   viewBox="0 0 800 800"
   enable-background="new 0 0 1024 1024"
   xml:space="preserve"
   sodipodi:docname="FV-Eventos.svg"
   height="800"
   inkscape:version="1.4.2 (1:1.4.2+202505120737+ebf0e940d0)"
   inkscape:export-filename="FV-Eventos.png"
   inkscape:export-xdpi="96"
   inkscape:export-ydpi="96"
   xmlns:inkscape="http://www.inkscape.org/namespaces/inkscape"
   xmlns:sodipodi="http://sodipodi.sourceforge.net/DTD/sodipodi-0.dtd"
   xmlns="http://www.w3.org/2000/svg"
   xmlns:svg="http://www.w3.org/2000/svg"><defs
   id="defs21" /><sodipodi:namedview
   id="namedview21"
   pagecolor="#ffffff"
   bordercolor="#000000"
   borderopacity="0.25"
   inkscape:showpageshadow="2"
   inkscape:pageopacity="0.0"
   inkscape:pagecheckerboard="0"
   inkscape:deskcolor="#d1d1d1"
   inkscape:zoom="0.69425549"
   inkscape:cx="397.54817"
   inkscape:cy="311.84485"
   inkscape:window-width="1366"
   inkscape:window-height="699"
   inkscape:window-x="0"
   inkscape:window-y="0"
   inkscape:window-maximized="1"
   inkscape:current-layer="Layer_1"
   inkscape:export-bgcolor="#ffffffff" />
<path
   fill="#000000"
   opacity="1"
   stroke="none"
   d="m 522.37048,277.84909 c 2.86432,-6.42682 5.75049,-12.43259 7.58813,-18.87305 1.83338,-6.42554 0.48304,-9.54483 -5.64245,-12.04263 -1.3653,-0.55673 -2.43482,-1.07514 -2.33698,-2.7287 0.11176,-1.88971 1.48102,-2.69949 3.02722,-2.71161 10.32825,-0.081 20.6576,-0.0557 30.98627,-0.007 1.43976,0.007 2.56921,0.75284 2.86871,2.2978 0.24433,1.26031 -0.10131,2.54074 -1.30255,2.96057 -11.66314,4.07653 -15.16308,15.03756 -19.90692,24.48111 -20.03546,39.8847 -39.58362,80.0141 -59.33288,120.04269 -5.08545,10.30728 -10.24213,20.5795 -15.39466,30.85349 -1.12628,2.24584 -2.31677,4.40094 -5.16266,5.00189 -3.75189,0.79223 -6.16131,0.44086 -7.23089,-4.18994 -10.18286,-44.08783 -21.12671,-87.99881 -30.70679,-132.22739 -0.21094,-0.97354 -0.45862,-1.93912 -0.67157,-2.91223 -2.78247,-12.71729 -3.75647,-14.56543 -20.13586,-14.98962 -4.21839,-0.10929 -6.37403,1.54861 -7.38648,5.66149 -4.26843,17.34021 -10.38199,34.08731 -17.32611,50.49652 -8.68573,20.52475 -19.23025,39.98569 -36.12155,55.13456 -20.86145,18.70953 -44.93292,24.61566 -71.86228,16.4516 -13.31387,-4.03626 -22.54113,-12.56745 -24.96035,-27.07493 -1.1828,-7.09295 1.32419,-13.10022 5.16803,-18.7239 3.4487,-5.0455 8.54635,-8.36133 13.22604,-12.09577 1.03745,-0.82791 2.24228,-1.6611 3.62677,-0.72662 1.54852,1.04504 1.26355,2.58014 0.79874,4.05377 -0.24875,0.78858 -0.6818,1.51737 -1.00589,2.28403 -5.01468,11.86298 -4.36774,23.21957 3.95456,33.33279 8.28555,10.06855 19.62472,12.08905 31.74572,9.95954 13.1283,-2.30649 22.92411,-10.1034 30.98752,-20.40128 9.9921,-12.76096 16.23465,-27.46442 22.28159,-42.29193 6.61331,-16.2164 11.66028,-32.94327 16.31024,-49.79919 0.47156,-1.70935 1.24838,-3.44797 0.78558,-5.27674 -2.91195,-2.0423 -5.71194,-0.31753 -8.31228,0.16071 -7.39154,1.35943 -14.7038,3.26745 -20.38202,8.68387 -5.37396,5.12609 -7.83725,11.07248 -4.69257,18.45309 0.68994,1.61932 1.91397,3.65692 0.13074,5.07651 -2.0184,1.60681 -3.72998,-0.18176 -5.26386,-1.41428 -11.34613,-9.11694 -9.74508,-26.44583 3.16013,-34.22509 10.26917,-6.19028 21.77014,-8.10602 33.41177,-9.11771 4.8433,-0.42093 7.28397,-2.06998 8.6333,-7.00037 3.46699,-12.66858 6.62293,-25.48291 11.81336,-37.6008 6.76904,-15.80356 16.56366,-28.86535 33.43548,-35.13339 0.7273,-0.2702 1.33344,-0.86667 1.9051,-1.25021 -0.11481,-2.3877 -1.81141,-2.37647 -3.21808,-2.66312 -24.61322,-5.01608 -49.25449,-10.16522 -74.52069,-9.8367 -17.76441,0.23096 -34.97538,3.50818 -48.96726,15.60043 -16.14438,13.95246 -21.38953,38.6254 -11.67029,56.16709 8.77591,15.83917 29.94907,18.27118 44.24671,9.75882 2.71475,-1.61628 5.25219,-3.52762 7.92004,-5.22654 1.32193,-0.84182 2.6684,-2.55301 4.38437,-1.00933 1.84363,1.65847 0.582,3.33981 -0.46664,4.87079 -6.66281,9.72729 -15.89994,15.09243 -27.45673,17.41238 -25.48831,5.11667 -50.66574,-11.30252 -53.32709,-35.56455 -2.22128,-20.25021 4.49088,-37.3507 19.49011,-51.15262 14.69034,-13.51763 32.80152,-19.21993 51.91028,-22.59158 22.49982,-3.97 44.7945,-1.58615 66.97782,2.48801 18.80481,3.45364 37.47558,7.7056 56.42773,10.27035 17.2757,2.33789 34.5492,1.86149 51.60376,-2.18856 6.57227,-1.56067 12.45435,-4.61969 17.96723,-8.48493 1.55676,-1.09143 2.97546,-2.78665 5.38873,-2.24759 1.41742,2.44147 0.17193,4.57889 -1.07038,6.42783 -4.36187,6.49158 -8.65533,13.03473 -14.28289,18.58478 -5.28229,5.20953 -11.63587,7.37014 -18.89887,7.81344 -17.48706,1.06738 -34.47833,-2.31814 -51.48449,-5.52832 -2.83814,-0.53576 -5.00666,-0.001 -7.52723,1.32865 -11.61517,6.12908 -18.42425,16.04269 -22.78546,27.99072 -5.19336,14.22775 -10.48779,28.42193 -14.86407,42.93194 -0.46454,1.54038 -1.48487,3.01709 -0.78846,5.10392 6.6142,1.89483 13.6001,2.164 20.49823,2.41223 10.1521,0.36532 20.32703,0.11737 30.49207,0.0854 2.11401,-0.007 4.09186,-0.0856 4.25208,2.83593 0.14196,2.58954 -0.32422,4.66239 -3.36713,5.15131 -1.31293,0.21094 -2.62494,0.47839 -3.90418,0.83804 -3.61676,1.0167 -5.03912,3.07679 -4.21771,7.07389 5.61743,27.33398 11.01184,54.71377 16.60199,82.05343 1.5979,7.81513 3.54553,15.56134 5.4726,23.30435 0.40387,1.62256 0.10003,4.16144 2.59362,4.28599 2.09992,0.10491 2.99793,-1.93131 3.82679,-3.53467 4.43707,-8.58258 8.97558,-17.11902 13.15936,-25.82505 12.9848,-27.02032 25.82544,-54.10992 38.89673,-81.50808 z"
   id="path1"
   style="fill:#a68b4b;fill-opacity:1" />




















<text
   xml:space="preserve"
   style="font-style:normal;font-variant:normal;font-weight:normal;font-stretch:normal;font-size:86px;font-family:'Cormorant Garamond';-inkscape-font-specification:'Cormorant Garamond, @wght=700';font-variant-ligatures:normal;font-variant-caps:normal;font-variant-numeric:normal;font-variant-east-asian:normal;font-variation-settings:'wght' 700;text-align:start;writing-mode:lr-tb;direction:ltr;text-anchor:start;white-space:pre;inline-size:790.66;display:inline;fill:#a68b5f;stroke-width:3.9;stroke-dasharray:none;fill-opacity:1"
   x="496.54727"
   y="824.1449"
   id="text21"
   transform="translate(-458.69266,-311.11469)"><tspan
     x="496.54727"
     y="824.1449"
     id="tspan1">FABIANA VARGAS</tspan></text><text
   xml:space="preserve"
   style="font-style:normal;font-variant:normal;font-weight:normal;font-stretch:normal;font-size:56px;font-family:Montserrat;-inkscape-font-specification:'Montserrat, @wght=600';font-variant-ligatures:normal;font-variant-caps:normal;font-variant-numeric:normal;font-variant-east-asian:normal;font-variation-settings:'wght' 600;text-align:start;writing-mode:lr-tb;direction:ltr;text-anchor:start;fill:#a68b5f;fill-opacity:1;stroke-width:3.9;stroke-dasharray:none"
   x="259.55203"
   y="585.14288"
   id="text22"><tspan
     sodipodi:role="line"
     id="tspan22"
     x="259.55203"
     y="585.14288">EVENTOS</tspan></text></svg>
