<?xml version="1.0" encoding="UTF-8" standalone="no"?>
<svg
   version="1.1"
   id="Layer_1"
   x="0px"
   y="0px"
   width="500"
   viewBox="0 0 500 500"
   enable-background="new 0 0 1024 1024"
   xml:space="preserve"
   sodipodi:docname="FV-Eventos.svg"
   height="500"
   inkscape:version="1.4.2 (1:1.4.2+202505120737+ebf0e940d0)"
   inkscape:export-filename="FV-Eventos.png"
   inkscape:export-xdpi="96"
   inkscape:export-ydpi="96"
   xmlns:inkscape="http://www.inkscape.org/namespaces/inkscape"
   xmlns:sodipodi="http://sodipodi.sourceforge.net/DTD/sodipodi-0.dtd"
   xmlns="http://www.w3.org/2000/svg"
   xmlns:svg="http://www.w3.org/2000/svg"><defs
   id="defs21" /><sodipodi:namedview
   id="namedview21"
   pagecolor="#00ffff"
   bordercolor="#000000"
   borderopacity="0.25"
   inkscape:showpageshadow="2"
   inkscape:pageopacity="0.0"
   inkscape:pagecheckerboard="0"
   inkscape:deskcolor="#d1d1d1"
   inkscape:zoom="0.52466418"
   inkscape:cx="634.6917"
   inkscape:cy="279.22623"
   inkscape:window-width="1366"
   inkscape:window-height="699"
   inkscape:window-x="0"
   inkscape:window-y="0"
   inkscape:window-maximized="1"
   inkscape:current-layer="Layer_1"
   inkscape:export-bgcolor="#ffffff00" />





















<ellipse
   style="font-variation-settings:'wght' 700;fill:#000000;fill-opacity:1;stroke:#000000;stroke-width:3.91831;stroke-opacity:1"
   id="path2"
   cx="248.73055"
   cy="249.68352"
   rx="246.82455"
   ry="247.77754" /><path
   fill="#000000"
   opacity="1"
   stroke="none"
   d="m 399.05942,233.74353 c 3.48896,-8.06519 7.00471,-15.60241 9.24266,-23.68446 2.23341,-8.06423 0.58887,-11.97874 -6.87275,-15.1134 -1.66312,-0.69865 -2.96613,-1.34936 -2.84696,-3.42414 0.13642,-2.37137 1.80426,-3.38804 3.68788,-3.40301 12.58089,-0.10187 25.16283,-0.069 37.74386,-0.009 1.75416,0.009 3.12965,0.94456 3.4948,2.8834 0.29723,1.58168 -0.12361,3.18828 -1.58664,3.71541 -14.20691,5.11577 -18.4701,18.87127 -24.24901,30.72309 -24.40499,50.05313 -48.21658,100.41407 -72.27294,150.64804 -6.19457,12.93515 -12.47579,25.82639 -18.75203,38.71981 -1.37225,2.81857 -2.8221,5.52323 -6.28898,6.27711 -4.57016,0.99441 -7.50518,0.55369 -8.80762,-5.25774 -12.40413,-55.32836 -25.73464,-110.43524 -37.40388,-165.93999 -0.25716,-1.22201 -0.559,-2.43359 -0.81798,-3.65451 -3.3896,-15.9601 -4.57623,-18.27951 -24.52776,-18.81142 -5.1386,-0.1374 -7.76388,1.94333 -8.99722,7.10463 -5.19981,21.76124 -12.64651,42.77827 -21.10487,63.37121 -10.58052,25.75754 -23.42434,50.18036 -44,69.19158 -25.41109,23.47939 -54.73236,30.89177 -87.535143,20.64593 -16.217573,-5.06551 -27.457291,-15.77147 -30.404134,-33.97757 -1.440762,-8.90146 1.612959,-16.44052 6.295177,-23.49785 4.200857,-6.33216 10.410256,-10.49311 16.110566,-15.17965 1.263754,-1.03909 2.731353,-2.08468 4.417765,-0.91212 1.886298,1.3116 1.539156,3.23817 0.972986,5.08709 -0.30305,0.98986 -0.830529,1.90469 -1.225307,2.86674 -6.108337,14.8874 -5.320332,29.13942 4.81704,41.83122 10.092634,12.63537 23.90459,15.17134 38.66963,12.49893 15.99157,-2.89473 27.92373,-12.67971 37.74534,-25.60322 12.17175,-16.01413 19.77556,-34.46659 27.14119,-53.07412 8.05585,-20.3512 14.20347,-41.34257 19.868,-62.49587 0.5739,-2.14556 1.52047,-4.32722 0.95648,-6.6221 -3.54668,-2.56347 -6.95729,-0.39888 -10.12487,0.20158 -9.00391,1.70598 -17.91092,4.10057 -24.82718,10.89762 -6.54617,6.43299 -9.54679,13.89556 -5.71622,23.15777 0.8406,2.03251 2.33126,4.5896 0.15917,6.37107 -2.45829,2.01645 -4.54327,-0.22814 -6.41213,-1.77491 -13.82014,-11.44111 -11.87011,-33.18833 3.84969,-42.9509 12.50882,-7.76875 26.51826,-10.17284 40.69877,-11.44265 5.89936,-0.52784 8.87249,-2.59766 10.51644,-8.7852 4.2231,-15.89816 8.06716,-31.98004 14.38943,-47.18702 8.24539,-19.83329 20.17613,-36.22505 40.72778,-44.09109 0.88601,-0.33924 1.6243,-1.08756 2.32065,-1.56926 -0.14007,-2.99624 -2.20648,-2.98243 -3.91978,-3.34194 -29.98176,-6.29436 -59.99711,-12.756615 -90.7739,-12.344362 -21.63829,0.289855 -42.60326,4.402612 -59.64665,19.577942 -19.66548,17.50963 -26.0546,48.47331 -14.21547,70.48706 10.68987,19.87786 36.4808,22.93002 53.89683,12.24732 3.30661,-2.02876 6.39755,-4.42742 9.64732,-6.55944 1.61025,-1.0563 3.25039,-3.20351 5.34063,-1.26628 2.24573,2.08087 0.70873,4.1912 -0.5686,6.11214 -8.1156,12.20776 -19.36757,18.94085 -33.44514,21.85221 -31.04673,6.42171 -61.715592,-14.18417 -64.957364,-44.63179 -2.705748,-25.41292 5.470285,-46.87315 23.740914,-64.19439 17.89416,-16.963927 39.95552,-24.120086 63.23177,-28.351318 27.40708,-4.982198 54.56396,-1.990605 81.5855,3.122325 22.90635,4.334151 45.64896,9.670173 68.73438,12.88887 21.04384,2.933913 42.08439,2.336073 62.85883,-2.746591 8.0052,-1.958576 15.17016,-5.7975 21.88568,-10.648222 1.8963,-1.369712 3.62434,-3.497118 6.56371,-2.820604 1.72679,3.063926 0.20976,5.746311 -1.30344,8.066637 -5.31314,8.146652 -10.54346,16.357703 -17.39836,23.322883 -6.43423,6.53784 -14.17359,9.24931 -23.02036,9.80602 -21.30087,1.33917 -41.99818,-2.9097 -62.71336,-6.93832 -3.45694,-0.67214 -6.0983,-8.5e-4 -9.16901,1.66744 -14.14819,7.69186 -22.44217,20.13286 -27.75444,35.12758 -6.32641,17.85513 -12.77519,35.66821 -18.10613,53.87748 -0.56609,1.93311 -1.8089,3.78645 -0.96055,6.40556 8.05672,2.37768 16.56637,2.71563 24.96895,3.02713 12.36604,0.45857 24.76029,0.14742 37.14215,0.10732 2.57538,-0.009 4.98448,-0.10757 5.17961,3.5585 0.17316,3.24972 -0.39479,5.85154 -4.10158,6.46461 -1.59904,0.26481 -3.19704,0.60065 -4.75573,1.05222 -4.40514,1.27592 -6.13782,3.8608 -5.13716,8.87725 6.84216,34.30305 13.41324,68.66328 20.22267,102.97333 1.94624,9.80808 4.3185,19.52922 6.66606,29.24639 0.49213,2.03588 0.12177,5.22249 3.15952,5.3788 2.55788,0.13138 3.6516,-2.424 4.66119,-4.43615 5.40503,-10.77067 10.9329,-21.48373 16.02939,-32.40933 15.81701,-33.90951 31.45786,-67.90581 47.38024,-102.28935 z"
   id="path1"
   style="fill:#ffffff;fill-opacity:1;stroke:none;stroke-width:1.23643;stroke-opacity:1" /></svg>
