<?xml version="1.0" encoding="UTF-8" standalone="no"?>
<svg
   version="1.1"
   id="Layer_1"
   x="0px"
   y="0px"
   width="1100"
   viewBox="0 0 1100 350"
   enable-background="new 0 0 1024 1024"
   xml:space="preserve"
   sodipodi:docname="FV-Eventos.svg"
   height="350"
   inkscape:version="1.4.2 (1:1.4.2+202505120737+ebf0e940d0)"
   inkscape:export-filename="FV-Eventos.png"
   inkscape:export-xdpi="96"
   inkscape:export-ydpi="96"
   xmlns:inkscape="http://www.inkscape.org/namespaces/inkscape"
   xmlns:sodipodi="http://sodipodi.sourceforge.net/DTD/sodipodi-0.dtd"
   xmlns="http://www.w3.org/2000/svg"
   xmlns:svg="http://www.w3.org/2000/svg"><defs
   id="defs21" /><sodipodi:namedview
   id="namedview21"
   pagecolor="#ffffff"
   bordercolor="#000000"
   borderopacity="0.25"
   inkscape:showpageshadow="2"
   inkscape:pageopacity="0.0"
   inkscape:pagecheckerboard="0"
   inkscape:deskcolor="#d1d1d1"
   inkscape:zoom="0.52466418"
   inkscape:cx="634.6917"
   inkscape:cy="279.22623"
   inkscape:window-width="1366"
   inkscape:window-height="699"
   inkscape:window-x="0"
   inkscape:window-y="0"
   inkscape:window-maximized="1"
   inkscape:current-layer="Layer_1"
   inkscape:export-bgcolor="#ffffff00" />
<path
   fill="#000000"
   opacity="1"
   stroke="none"
   d="m 347.84127,160.67089 c 3.51696,-8.12998 7.06075,-15.72732 9.31709,-23.87454 2.25112,-8.12835 0.59311,-12.07427 -6.92808,-15.23401 -1.67639,-0.70427 -2.9896,-1.36005 -2.86947,-3.45182 0.13723,-2.3905 1.81847,-3.41487 3.71698,-3.43021 12.68156,-0.10246 25.36448,-0.0704 38.04654,-0.009 1.76781,0.009 3.15461,0.95235 3.52235,2.90673 0.30001,1.5943 -0.12439,3.21405 -1.59933,3.74514 -14.32061,5.15684 -18.61802,19.02261 -24.44275,30.96876 -24.60058,50.45442 -48.60282,101.21838 -72.85199,151.85481 -6.24416,13.03878 -12.5758,26.03321 -18.90235,39.02987 -1.38291,2.841 -2.84465,5.56722 -6.33898,6.32742 -4.60676,1.00218 -7.56518,0.55769 -8.87846,-5.30029 -12.50305,-55.7714 -25.94048,-111.31908 -37.70339,-167.26853 -0.25901,-1.23154 -0.56312,-2.45301 -0.8246,-3.684 -3.41646,-16.08745 -4.61237,-18.42537 -24.72384,-18.96197 -5.17956,-0.13825 -7.82636,1.95901 -9.06951,7.16183 -5.241,21.93549 -12.74754,43.12067 -21.2739,63.87843 -10.66478,25.96394 -23.61189,50.58217 -44.35191,69.74559 C 96.070906,318.74278 66.51471,326.21408 33.44944,315.88648 17.101981,310.78056 5.7722733,299.98854 2.8018297,281.63649 1.3495266,272.66386 4.4277388,265.06462 9.1474047,257.95062 13.381897,251.56804 19.641056,247.37349 25.387021,242.6494 c 1.273836,-1.04731 2.753188,-2.1013 4.453137,-0.91918 1.901353,1.32198 1.551452,3.2639 0.980735,5.12805 -0.305429,0.99756 -0.83715,1.91947 -1.235085,2.88931 -6.157283,15.00675 -5.362937,29.37291 4.855614,42.1662 10.173427,12.73678 24.096254,15.29273 38.979045,12.59889 16.119608,-2.91773 28.147413,-12.78088 38.048083,-25.80775 12.26882,-16.14271 19.93374,-34.74268 27.3585,-53.49958 8.12015,-20.51386 14.31709,-41.67346 20.02655,-62.9963 0.579,-2.16235 1.53281,-4.36171 0.96457,-6.67512 -3.57544,-2.58353 -7.01342,-0.40168 -10.20625,0.2033 -9.07572,1.71969 -18.05408,4.13335 -25.02609,10.98515 -6.59843,6.48454 -9.62299,14.00677 -5.76178,23.34328 0.84715,2.04846 2.35007,4.62602 0.16053,6.42181 -2.4783,2.03263 -4.57987,-0.22992 -6.46324,-1.78906 -13.93137,-11.533 -11.96552,-33.45415 3.88016,-43.29497 12.60902,-7.83074 26.73051,-10.25416 41.02471,-11.53397 5.94685,-0.53247 8.94363,-2.61853 10.60041,-8.85551 4.25696,-16.02584 8.13198,-32.236048 14.50506,-47.56526 8.31137,-19.991608 20.33772,-36.514859 41.05382,-44.443985 0.89301,-0.341805 1.63726,-1.096344 2.33917,-1.581524 -0.14097,-3.020456 -2.22413,-3.006251 -3.95132,-3.368864 C 191.75196,27.709077 161.49614,21.195381 130.47299,21.610961 108.66091,21.903126 87.528398,26.048832 70.348444,41.345604 50.525538,58.99557 44.085265,90.207001 56.019056,112.39736 c 10.775517,20.03666 36.773021,23.11317 54.328394,12.34497 3.33332,-2.0446 6.44892,-4.46246 9.72464,-6.61161 1.62313,-1.0649 3.2764,-3.22957 5.38336,-1.27681 2.26371,2.09798 0.7146,4.22489 -0.57296,6.16159 -8.18095,12.30508 -19.52277,19.09202 -33.712798,22.02678 C 59.873825,151.51495 28.959666,130.74456 25.691922,100.05293 22.964518,74.436279 31.206057,52.804045 49.622894,35.344512 67.660455,18.244625 89.8983,11.031177 113.36103,6.7660177 c 27.62644,-5.0220764 55.001,-2.0064903 82.23884,3.1473493 23.08951,4.368877 46.01445,9.747635 69.28488,12.992061 21.212,2.957446 42.4213,2.354798 63.36178,-2.768543 8.06977,-1.974258 15.2921,-5.843939 22.06109,-10.7334929 1.91146,-1.3806662 3.65342,-3.5251307 6.61656,-2.8432163 1.74039,3.0884762 0.21111,5.7923262 -1.31427,8.1312472 -5.35572,8.211892 -10.62747,16.489016 -17.53727,23.509866 -6.48586,6.590103 -14.28712,9.323288 -23.20501,9.884067 -21.47152,1.350242 -42.33428,-2.932463 -63.21533,-6.993375 -3.48481,-0.67774 -6.14743,-0.0012 -9.24232,1.680764 -14.26171,7.753327 -22.62225,20.29411 -27.97716,35.408446 -6.37669,17.998201 -12.87746,35.953929 -18.25088,54.309189 -0.57038,1.94859 -1.8232,3.81665 -0.96812,6.4565 8.12127,2.39697 16.69891,2.73747 25.1688,3.05148 12.46527,0.46214 24.95857,0.14848 37.43973,0.10804 2.59569,-0.009 5.0242,-0.10829 5.22094,3.58747 0.1743,3.27578 -0.3981,5.89794 -4.13435,6.51644 -1.61208,0.26684 -3.22303,0.60516 -4.79375,1.06012 -4.44084,1.28613 -6.18729,3.89216 -5.17872,8.94852 6.89738,34.57767 13.52091,69.21329 20.38478,103.79814 1.96199,9.88618 4.35339,19.6852 6.71955,29.48016 0.49588,2.05254 0.12282,5.26424 3.18457,5.4218 2.57839,0.13271 3.68102,-2.44313 4.69874,-4.47138 5.44806,-10.85703 11.02067,-21.65567 16.15774,-32.66886 15.94341,-34.18089 31.70982,-68.44941 47.75942,-103.10827 z"
   id="path1"
   style="fill:#ffffff;fill-opacity:1;stroke:none;stroke-width:1.24629;stroke-opacity:1" />




















<text
   xml:space="preserve"
   style="font-style:normal;font-variant:normal;font-weight:normal;font-stretch:normal;font-size:129.48px;line-height:0.7;font-family:'Cormorant Garamond';-inkscape-font-specification:'Cormorant Garamond, @wght=700';font-variant-ligatures:normal;font-variant-caps:normal;font-variant-numeric:normal;font-variant-east-asian:normal;font-variation-settings:'wght' 700;text-align:start;writing-mode:lr-tb;direction:ltr;text-anchor:start;white-space:pre;inline-size:699.173;display:inline;fill:#ffffff;fill-opacity:1;stroke-width:3.9;stroke-dasharray:none"
   x="496.54727"
   y="824.1449"
   id="text21"
   transform="matrix(1,0,0,1.2368523,-24.456721,-894.33561)"><tspan
     x="496.54727"
     y="824.1449"
     id="tspan2">FABIANA </tspan><tspan
     x="496.54727"
     y="914.78086"
     id="tspan3">VARGAS</tspan></text><text
   xml:space="preserve"
   style="font-style:normal;font-variant:normal;font-weight:normal;font-stretch:normal;font-size:73.6443px;font-family:Montserrat;-inkscape-font-specification:'Montserrat, @wght=600';font-variant-ligatures:normal;font-variant-caps:normal;font-variant-numeric:normal;font-variant-east-asian:normal;font-variation-settings:'wght' 600;text-align:start;writing-mode:lr-tb;direction:ltr;text-anchor:start;fill:#ffffff;fill-opacity:1;stroke-width:5.1288;stroke-dasharray:none"
   x="505.06821"
   y="302.23242"
   id="text22"
   transform="scale(0.92257323,1.0839248)"><tspan
     sodipodi:role="line"
     id="tspan22"
     x="505.06821"
     y="302.23242"
     style="fill:#ffffff;fill-opacity:1;stroke-width:5.1288">EVENTOS</tspan></text></svg>
